<mxfile host="app.diagrams.net" modified="2020-10-09T19:18:14.207Z" agent="5.0 (X11)" etag="z9ASK-AKYwaX5oZLfx4E" version="13.7.9" type="github">
  <diagram name="Page-1" id="d9b1e647-80fa-b4a2-5024-87a742678bcc">
    <mxGraphModel dx="1849" dy="1034" grid="1" gridSize="10" guides="1" tooltips="1" connect="1" arrows="1" fold="1" page="1" pageScale="1" pageWidth="1100" pageHeight="850" background="#ffffff" math="0" shadow="0">
      <root>
        <mxCell id="0" />
        <mxCell id="1" parent="0" />
        <mxCell id="57fe6abec08f04cb-1" value="1" style="shape=step;whiteSpace=wrap;html=1;fontSize=28;fillColor=#0080FF;fontColor=#FFFFFF;strokeColor=none;" parent="1" vertex="1">
          <mxGeometry x="30" y="80" width="170" height="80" as="geometry" />
        </mxCell>
        <mxCell id="57fe6abec08f04cb-2" value="2" style="shape=step;whiteSpace=wrap;html=1;fontSize=28;fillColor=#0075E8;fontColor=#FFFFFF;strokeColor=none;" parent="1" vertex="1">
          <mxGeometry x="180" y="80" width="170" height="80" as="geometry" />
        </mxCell>
        <mxCell id="57fe6abec08f04cb-3" value="3" style="shape=step;whiteSpace=wrap;html=1;fontSize=28;fillColor=#0067CC;fontColor=#FFFFFF;strokeColor=none;" parent="1" vertex="1">
          <mxGeometry x="330" y="80" width="170" height="80" as="geometry" />
        </mxCell>
        <mxCell id="57fe6abec08f04cb-4" value="4" style="shape=step;whiteSpace=wrap;html=1;fontSize=28;fillColor=#0062C4;fontColor=#FFFFFF;strokeColor=none;" parent="1" vertex="1">
          <mxGeometry x="480" y="80" width="310" height="80" as="geometry" />
        </mxCell>
        <mxCell id="57fe6abec08f04cb-5" value="5" style="shape=step;whiteSpace=wrap;html=1;fontSize=28;fillColor=#0059B0;fontColor=#FFFFFF;strokeColor=none;" parent="1" vertex="1">
          <mxGeometry x="780" y="80" width="170" height="80" as="geometry" />
        </mxCell>
        <mxCell id="57fe6abec08f04cb-6" value="6" style="shape=step;whiteSpace=wrap;html=1;fontSize=28;fillColor=#004D99;fontColor=#FFFFFF;strokeColor=none;" parent="1" vertex="1">
          <mxGeometry x="940" y="80" width="170" height="80" as="geometry" />
        </mxCell>
        <mxCell id="57fe6abec08f04cb-7" value="Pilot 1 - No project" style="text;html=1;strokeColor=none;fillColor=#61BAFF;align=center;verticalAlign=middle;whiteSpace=wrap;fontSize=54;fontStyle=1;fontColor=#004D99;" parent="1" vertex="1">
          <mxGeometry x="120" y="10" width="860" height="60" as="geometry" />
        </mxCell>
        <mxCell id="ayy8SuIB1C09vLckcYo4-1" value="&lt;div&gt;Curiculum Drafting&lt;/div&gt;" style="shape=process;whiteSpace=wrap;html=1;backgroundOutline=1;fillColor=#1ba1e2;strokeColor=#006EAF;fontColor=#ffffff;" vertex="1" parent="1">
          <mxGeometry x="30" y="160" width="140" height="60" as="geometry" />
        </mxCell>
        <mxCell id="ayy8SuIB1C09vLckcYo4-2" value="&lt;div&gt;What topics can we provide valuable knowledge on&lt;/div&gt;" style="rounded=1;whiteSpace=wrap;html=1;fillColor=#f8cecc;strokeColor=#b85450;" vertex="1" parent="1">
          <mxGeometry x="40" y="230" width="120" height="60" as="geometry" />
        </mxCell>
        <mxCell id="ayy8SuIB1C09vLckcYo4-3" value="&lt;div&gt;Who in our network is an expert/has credentials in these topics&lt;/div&gt;" style="rounded=1;whiteSpace=wrap;html=1;fillColor=#f8cecc;strokeColor=#b85450;" vertex="1" parent="1">
          <mxGeometry x="40" y="310" width="120" height="60" as="geometry" />
        </mxCell>
        <mxCell id="ayy8SuIB1C09vLckcYo4-4" value="&lt;div&gt;Are they willing to draft course material and deliver it&lt;/div&gt;" style="rounded=1;whiteSpace=wrap;html=1;fillColor=#f8cecc;strokeColor=#b85450;" vertex="1" parent="1">
          <mxGeometry x="40" y="390" width="120" height="60" as="geometry" />
        </mxCell>
        <mxCell id="ayy8SuIB1C09vLckcYo4-5" value="Scheduling" style="shape=process;whiteSpace=wrap;html=1;backgroundOutline=1;fillColor=#1ba1e2;strokeColor=#006EAF;fontColor=#ffffff;" vertex="1" parent="1">
          <mxGeometry x="180" y="160" width="140" height="60" as="geometry" />
        </mxCell>
        <mxCell id="ayy8SuIB1C09vLckcYo4-8" value="&lt;div&gt;What are the foundations and what are advandced topics&lt;br&gt;&lt;/div&gt;" style="rounded=1;whiteSpace=wrap;html=1;fillColor=#f8cecc;strokeColor=#b85450;" vertex="1" parent="1">
          <mxGeometry x="190" y="230" width="120" height="60" as="geometry" />
        </mxCell>
        <mxCell id="ayy8SuIB1C09vLckcYo4-9" value="Essentially courses need to build off one another to compound knowledge" style="shape=document;whiteSpace=wrap;html=1;boundedLbl=1;fillColor=#fff2cc;strokeColor=#d6b656;" vertex="1" parent="1">
          <mxGeometry x="190" y="290" width="120" height="100" as="geometry" />
        </mxCell>
        <mxCell id="ayy8SuIB1C09vLckcYo4-10" value="Fit courses, opening and closing into a weekly schedule" style="rounded=0;whiteSpace=wrap;html=1;fillColor=#ffe6cc;strokeColor=#d79b00;" vertex="1" parent="1">
          <mxGeometry x="190" y="410" width="120" height="60" as="geometry" />
        </mxCell>
        <mxCell id="ayy8SuIB1C09vLckcYo4-12" value="Relay schedule back to speakers to confirm attendance" style="rounded=0;whiteSpace=wrap;html=1;fillColor=#ffe6cc;strokeColor=#d79b00;" vertex="1" parent="1">
          <mxGeometry x="190" y="630" width="120" height="60" as="geometry" />
        </mxCell>
        <mxCell id="ayy8SuIB1C09vLckcYo4-13" value="&lt;div&gt;Promotion&lt;/div&gt;" style="shape=process;whiteSpace=wrap;html=1;backgroundOutline=1;fillColor=#1ba1e2;strokeColor=#006EAF;fontColor=#ffffff;" vertex="1" parent="1">
          <mxGeometry x="480" y="160" width="140" height="60" as="geometry" />
        </mxCell>
        <mxCell id="ayy8SuIB1C09vLckcYo4-14" value="Call for participants to those who paid and affected by COVID" style="rounded=0;whiteSpace=wrap;html=1;fillColor=#ffe6cc;strokeColor=#d79b00;" vertex="1" parent="1">
          <mxGeometry x="490" y="235" width="120" height="60" as="geometry" />
        </mxCell>
        <mxCell id="ayy8SuIB1C09vLckcYo4-15" value="Second Call for participants targeting universities and professionals" style="rounded=0;whiteSpace=wrap;html=1;fillColor=#ffe6cc;strokeColor=#d79b00;" vertex="1" parent="1">
          <mxGeometry x="490" y="315" width="120" height="80" as="geometry" />
        </mxCell>
        <mxCell id="ayy8SuIB1C09vLckcYo4-16" value="Max 25 (15 for pilot)" style="shape=note;whiteSpace=wrap;html=1;backgroundOutline=1;darkOpacity=0.05;fillColor=#fff2cc;strokeColor=#d6b656;" vertex="1" parent="1">
          <mxGeometry x="490" y="285" width="120" height="40" as="geometry" />
        </mxCell>
        <mxCell id="ayy8SuIB1C09vLckcYo4-17" value="&lt;div&gt;1. Time alotted /course&lt;/div&gt;&lt;div&gt;2. Breaks&lt;/div&gt;&lt;div&gt;3. Social time&lt;/div&gt;&lt;div&gt;4. Extra activities such as virtual tours, peruvian cooking, travel stories sharing, culture nights&lt;br&gt;&lt;/div&gt;" style="shape=note;whiteSpace=wrap;html=1;backgroundOutline=1;darkOpacity=0.05;fillColor=#fff2cc;strokeColor=#d6b656;" vertex="1" parent="1">
          <mxGeometry x="190" y="460" width="120" height="150" as="geometry" />
        </mxCell>
        <mxCell id="ayy8SuIB1C09vLckcYo4-18" value="Confirm TAs for the duration" style="rounded=0;whiteSpace=wrap;html=1;fillColor=#ffe6cc;strokeColor=#d79b00;" vertex="1" parent="1">
          <mxGeometry x="190" y="700" width="120" height="60" as="geometry" />
        </mxCell>
        <mxCell id="ayy8SuIB1C09vLckcYo4-19" value="Technical" style="shape=process;whiteSpace=wrap;html=1;backgroundOutline=1;fillColor=#1ba1e2;strokeColor=#006EAF;fontColor=#ffffff;" vertex="1" parent="1">
          <mxGeometry x="620" y="160" width="130" height="60" as="geometry" />
        </mxCell>
        <mxCell id="ayy8SuIB1C09vLckcYo4-21" value="&lt;div&gt;What open source/free tech can we leverage&lt;br&gt;&lt;/div&gt;" style="rounded=1;whiteSpace=wrap;html=1;fillColor=#f8cecc;strokeColor=#b85450;" vertex="1" parent="1">
          <mxGeometry x="630" y="230" width="120" height="60" as="geometry" />
        </mxCell>
        <mxCell id="ayy8SuIB1C09vLckcYo4-22" value="Test software on internal users" style="rounded=0;whiteSpace=wrap;html=1;fillColor=#ffe6cc;strokeColor=#d79b00;" vertex="1" parent="1">
          <mxGeometry x="630" y="480" width="120" height="60" as="geometry" />
        </mxCell>
        <mxCell id="ayy8SuIB1C09vLckcYo4-24" value="&lt;div&gt;1. Video conferencing and recordings&lt;br&gt;&lt;/div&gt;&lt;div&gt;2. Chat/channels&lt;/div&gt;&lt;div&gt;3. File storage&lt;/div&gt;&lt;div&gt;4. Internal emails&lt;/div&gt;&lt;div&gt;5. Security&lt;/div&gt;&lt;div&gt;6. Q&amp;amp;A&lt;/div&gt;&lt;div&gt;7. Simulations or other SW for workshops&lt;br&gt;&lt;/div&gt;" style="shape=card;whiteSpace=wrap;html=1;fillColor=#fff2cc;strokeColor=#d6b656;" vertex="1" parent="1">
          <mxGeometry x="630" y="280" width="120" height="190" as="geometry" />
        </mxCell>
        <mxCell id="ayy8SuIB1C09vLckcYo4-25" value="What is the ratio of seminars vs. interactive workshop" style="rounded=1;whiteSpace=wrap;html=1;fillColor=#f8cecc;strokeColor=#b85450;" vertex="1" parent="1">
          <mxGeometry x="40" y="470" width="120" height="60" as="geometry" />
        </mxCell>
        <mxCell id="ayy8SuIB1C09vLckcYo4-26" value="Technical Rehearsals with lecturers and participants" style="rounded=0;whiteSpace=wrap;html=1;fillColor=#ffe6cc;strokeColor=#d79b00;" vertex="1" parent="1">
          <mxGeometry x="630" y="550" width="120" height="60" as="geometry" />
        </mxCell>
        <mxCell id="ayy8SuIB1C09vLckcYo4-27" value="Schedule rehearsals&amp;nbsp; " style="rounded=0;whiteSpace=wrap;html=1;fillColor=#ffe6cc;strokeColor=#d79b00;" vertex="1" parent="1">
          <mxGeometry x="190" y="770" width="120" height="60" as="geometry" />
        </mxCell>
        <mxCell id="ayy8SuIB1C09vLckcYo4-28" value="Paywall for accepting low fee payments" style="rounded=0;whiteSpace=wrap;html=1;fillColor=#ffe6cc;strokeColor=#d79b00;" vertex="1" parent="1">
          <mxGeometry x="630" y="620" width="120" height="50" as="geometry" />
        </mxCell>
        <mxCell id="ayy8SuIB1C09vLckcYo4-29" value="Feedback" style="shape=process;whiteSpace=wrap;html=1;backgroundOutline=1;fillColor=#1ba1e2;strokeColor=#006EAF;fontColor=#ffffff;" vertex="1" parent="1">
          <mxGeometry x="780" y="160" width="140" height="60" as="geometry" />
        </mxCell>
        <mxCell id="ayy8SuIB1C09vLckcYo4-30" value="What do participants feel this is worth?" style="rounded=1;whiteSpace=wrap;html=1;fillColor=#f8cecc;strokeColor=#b85450;" vertex="1" parent="1">
          <mxGeometry x="795" y="230" width="120" height="60" as="geometry" />
        </mxCell>
        <mxCell id="ayy8SuIB1C09vLckcYo4-31" value="Provide a survey with options on what is good value, are they more likely to come to Peru now?" style="rounded=0;whiteSpace=wrap;html=1;fillColor=#ffe6cc;strokeColor=#d79b00;" vertex="1" parent="1">
          <mxGeometry x="795" y="305" width="120" height="90" as="geometry" />
        </mxCell>
        <mxCell id="ayy8SuIB1C09vLckcYo4-32" value="Pricing" style="shape=process;whiteSpace=wrap;html=1;backgroundOutline=1;fillColor=#1ba1e2;strokeColor=#006EAF;fontColor=#ffffff;" vertex="1" parent="1">
          <mxGeometry x="940" y="160" width="140" height="60" as="geometry" />
        </mxCell>
        <mxCell id="ayy8SuIB1C09vLckcYo4-33" value="&lt;div&gt;Group discounts&lt;/div&gt;&lt;div&gt;&lt;br&gt;&lt;/div&gt;&lt;div&gt;Return volunteer discount&lt;/div&gt;&lt;div&gt;&lt;br&gt;&lt;/div&gt;&lt;div&gt;Physical trip discount&lt;/div&gt;&lt;div&gt;&lt;br&gt;&lt;/div&gt;&lt;div&gt;University student discount&lt;/div&gt;&lt;div&gt;&lt;br&gt;&lt;/div&gt;&lt;div&gt;Vary price for professional vs student (maybe)&lt;br&gt;&lt;/div&gt;" style="shape=note;whiteSpace=wrap;html=1;backgroundOutline=1;darkOpacity=0.05;fillColor=#fff2cc;strokeColor=#d6b656;" vertex="1" parent="1">
          <mxGeometry x="950" y="230" width="130" height="190" as="geometry" />
        </mxCell>
        <mxCell id="ayy8SuIB1C09vLckcYo4-34" value="Can we provide accrediation" style="rounded=1;whiteSpace=wrap;html=1;fillColor=#f8cecc;strokeColor=#b85450;" vertex="1" parent="1">
          <mxGeometry x="40" y="550" width="120" height="60" as="geometry" />
        </mxCell>
        <mxCell id="ayy8SuIB1C09vLckcYo4-35" value="Seek advice from existing university partners" style="shape=card;whiteSpace=wrap;html=1;fillColor=#fff2cc;strokeColor=#d6b656;" vertex="1" parent="1">
          <mxGeometry x="50" y="600" width="107.5" height="110" as="geometry" />
        </mxCell>
        <mxCell id="ayy8SuIB1C09vLckcYo4-36" value="Emphasize pilot is free and discounted trip to peru" style="rounded=0;whiteSpace=wrap;html=1;fillColor=#ffe6cc;strokeColor=#d79b00;" vertex="1" parent="1">
          <mxGeometry x="490" y="400" width="120" height="60" as="geometry" />
        </mxCell>
        <mxCell id="ayy8SuIB1C09vLckcYo4-39" value="" style="line;strokeWidth=2;html=1;" vertex="1" parent="1">
          <mxGeometry x="480" y="525" width="140" height="10" as="geometry" />
        </mxCell>
        <mxCell id="ayy8SuIB1C09vLckcYo4-40" value="Future" style="swimlane;fillColor=#d5e8d4;strokeColor=#82b366;" vertex="1" parent="1">
          <mxGeometry x="480" y="535" width="140" height="300" as="geometry" />
        </mxCell>
        <mxCell id="ayy8SuIB1C09vLckcYo4-41" value="Promote speakers with their bios" style="rounded=0;whiteSpace=wrap;html=1;fillColor=#ffe6cc;strokeColor=#d79b00;" vertex="1" parent="ayy8SuIB1C09vLckcYo4-40">
          <mxGeometry x="10" y="30" width="120" height="60" as="geometry" />
        </mxCell>
        <mxCell id="ayy8SuIB1C09vLckcYo4-42" value="Promote how the course can help learn to help with climate change without comitting to the trip" style="rounded=0;whiteSpace=wrap;html=1;fillColor=#ffe6cc;strokeColor=#d79b00;" vertex="1" parent="ayy8SuIB1C09vLckcYo4-40">
          <mxGeometry x="10" y="110" width="120" height="80" as="geometry" />
        </mxCell>
        <mxCell id="ayy8SuIB1C09vLckcYo4-43" value="Promote accreditation and discounts for pairing the course with physical trip" style="rounded=0;whiteSpace=wrap;html=1;fillColor=#ffe6cc;strokeColor=#d79b00;" vertex="1" parent="ayy8SuIB1C09vLckcYo4-40">
          <mxGeometry x="10" y="200" width="120" height="80" as="geometry" />
        </mxCell>
        <mxCell id="ayy8SuIB1C09vLckcYo4-44" value="Individual reports from TAs/staff to also relay for future TAs/staff on learnings" style="rounded=0;whiteSpace=wrap;html=1;fillColor=#ffe6cc;strokeColor=#d79b00;" vertex="1" parent="1">
          <mxGeometry x="795" y="410" width="120" height="90" as="geometry" />
        </mxCell>
        <mxCell id="ayy8SuIB1C09vLckcYo4-45" value="Confirmation/welcome packages" style="rounded=0;whiteSpace=wrap;html=1;fillColor=#ffe6cc;strokeColor=#d79b00;" vertex="1" parent="1">
          <mxGeometry x="630" y="680" width="120" height="60" as="geometry" />
        </mxCell>
        <mxCell id="ayy8SuIB1C09vLckcYo4-46" value="Windaid Library" style="rounded=0;whiteSpace=wrap;html=1;fillColor=#ffe6cc;strokeColor=#d79b00;" vertex="1" parent="1">
          <mxGeometry x="630" y="750" width="120" height="30" as="geometry" />
        </mxCell>
        <mxCell id="ayy8SuIB1C09vLckcYo4-47" value="Roles and Responsiblities" style="shape=process;whiteSpace=wrap;html=1;backgroundOutline=1;fillColor=#1ba1e2;strokeColor=#006EAF;fontColor=#ffffff;" vertex="1" parent="1">
          <mxGeometry x="330" y="160" width="140" height="60" as="geometry" />
        </mxCell>
        <mxCell id="ayy8SuIB1C09vLckcYo4-54" value="&lt;div&gt;Hierarchy&lt;/div&gt;&lt;div&gt;1. Director&lt;/div&gt;&lt;div&gt;2. Chief academic officer&lt;/div&gt;&lt;div&gt;3. Academic officers/TAs&lt;br&gt;&lt;/div&gt;" style="rounded=0;whiteSpace=wrap;html=1;fillColor=#ffe6cc;strokeColor=#d79b00;" vertex="1" parent="1">
          <mxGeometry x="340" y="230" width="120" height="110" as="geometry" />
        </mxCell>
        <mxCell id="ayy8SuIB1C09vLckcYo4-55" value="Supplementary" style="rounded=0;whiteSpace=wrap;html=1;fillColor=#ffe6cc;strokeColor=#d79b00;" vertex="1" parent="1">
          <mxGeometry x="340" y="360" width="120" height="30" as="geometry" />
        </mxCell>
        <mxCell id="ayy8SuIB1C09vLckcYo4-56" value="&lt;div&gt;1. Comms/Social media&lt;/div&gt;&lt;div&gt;2. Happiness officer&lt;/div&gt;&lt;div&gt;3. IT&lt;br&gt;&lt;/div&gt;" style="rounded=0;whiteSpace=wrap;html=1;fillColor=#ffe6cc;strokeColor=#d79b00;" vertex="1" parent="1">
          <mxGeometry x="340" y="390" width="120" height="70" as="geometry" />
        </mxCell>
        <mxCell id="ayy8SuIB1C09vLckcYo4-57" value="Provide transparency to participants on who is filling each role and who to contact for what" style="rounded=0;whiteSpace=wrap;html=1;fillColor=#ffe6cc;strokeColor=#d79b00;" vertex="1" parent="1">
          <mxGeometry x="340" y="470" width="120" height="100" as="geometry" />
        </mxCell>
        <mxCell id="ayy8SuIB1C09vLckcYo4-58" value="Set up emails for each role and not just by person" style="rounded=0;whiteSpace=wrap;html=1;fillColor=#ffe6cc;strokeColor=#d79b00;" vertex="1" parent="1">
          <mxGeometry x="340" y="580" width="120" height="60" as="geometry" />
        </mxCell>
        <mxCell id="ayy8SuIB1C09vLckcYo4-59" value="Abstain from providing specfic tech details until rehearsals" style="rounded=0;whiteSpace=wrap;html=1;fillColor=#ffe6cc;strokeColor=#d79b00;" vertex="1" parent="1">
          <mxGeometry x="490" y="465" width="120" height="60" as="geometry" />
        </mxCell>
      </root>
    </mxGraphModel>
  </diagram>
</mxfile>
